<svg xmlns="http://www.w3.org/2000/svg" aria-hidden="true" style="position:absolute;width:0;height:0;overflow:hidden">
  <defs>
    <symbol id="antenna" viewBox="0 0 32 32">
      <path fill="#212121"
        d="m30.209 19.831-8.121-7.633.901-4.142c.232.085.48.129.729.131h.006c1.147.012 2.087-.845 2.101-1.915s-.905-1.947-2.051-1.96c-1.147-.012-2.087.845-2.101 1.915v.021c0 .234.044.458.125.663l-.004-.012-4.77.544L9.242.144A.534.534 0 0 0 8.52.14L7.065 1.49a.456.456 0 0 0 0 .676l.783.74c-3.033 5.203-2.047 11.647 2.423 15.852a.484.484 0 0 0 .14.087 2.621 2.621 0 0 0-.05.491v5.552H4.206c-1.416.001-2.563 1.072-2.565 2.393v.957c0 .265.23.479.513.479H25.75c.283 0 .513-.214.513-.479v-.957c-.002-1.321-1.149-2.392-2.564-2.393h-6.156v-2.461a15.101 15.101 0 0 0 9.704-1.313l.787.738a.534.534 0 0 0 .722.004l1.455-1.35a.456.456 0 0 0 0-.676zM23.002 5.594c.402-.373 1.051-.371 1.451.004s.398.981-.004 1.354a1.06 1.06 0 0 1-.718.278H23.722c-.567-.002-1.024-.433-1.021-.962a.922.922 0 0 1 .302-.673l.001-.001h-.002zm-1.208 3.144-.575 2.644-1.131-1.061 1.706-1.582zm-.582-.809-1.847 1.713-1.429-1.34 3.276-.373zm2.486 17.917c.85 0 1.538.643 1.538 1.436v.479H2.667v-.479c0-.793.689-1.436 1.538-1.436h19.493zm-7.181-1.915v.958h-5.129v-.958h5.129zm-5.13-.957v-3.638c0-1.161 1.15-2.106 2.564-2.106s2.565.945 2.565 2.106v3.638h-5.129zm6.156-1.522v-2.116c0-1.689-1.61-3.063-3.591-3.063-1.28-.018-2.477.59-3.156 1.603C6.893 14.04 6.014 8.323 8.604 3.618l17.891 16.79a14.157 14.157 0 0 1-8.953 1.044zm10.858-.613L8.148 1.83l.726-.675 7.632 7.161c.004 0 .006.006.009.009l12.613 11.839-.728.675z"
        style="fill:var(--color1, #212121)" />
      <path fill="#2196f3"
        d="M13.957 18.188h-.005c-.85-.001-1.54.641-1.541 1.434s.687 1.437 1.537 1.438h.005c.85.001 1.54-.64 1.541-1.433s-.687-1.437-1.537-1.438zm.359 1.775a.535.535 0 0 1-.364.139c-.283-.001-.512-.217-.51-.481a.464.464 0 0 1 .151-.336.533.533 0 0 1 .359-.14c.283.001.512.217.51.481a.466.466 0 0 1-.151.337h.005z"
        style="fill:var(--color2, #2196f3)" />
    </symbol>
    <symbol id="astronaut" viewBox="0 0 32 32">
      <path fill="#2196f3"
        d="M31.974 4.524a.535.535 0 0 0-.427-.362h-.003l-1.911-.278-.855-1.731c-.179-.365-.777-.365-.956 0l-.855 1.731-1.911.278a.534.534 0 0 0-.296.91l1.383 1.348-.326 1.903a.532.532 0 0 0 .774.562l1.709-.899 1.709.899a.534.534 0 0 0 .773-.565v.003l-.326-1.903 1.383-1.348a.535.535 0 0 0 .134-.55l.001.004zm-2.463 1.327a.53.53 0 0 0-.153.472l.191 1.114-1-.526a.525.525 0 0 0-.501.001l.003-.001-1 .526.191-1.114a.53.53 0 0 0-.152-.472l-.811-.79 1.119-.162a.532.532 0 0 0 .402-.292l.5-1.013.5 1.013a.532.532 0 0 0 .402.292l1.119.162-.809.79zm-3.377 14.671h-1.067v1.067h1.067v-1.067zm0 2.134h-1.067v1.066h1.067v-1.066zm1.066-1.067h-1.067v1.067H27.2v-1.067zm-2.133 0H24v1.067h1.067v-1.067zm-2.667 4.8h-1.067v1.067H22.4v-1.067zm0 2.134h-1.067v1.067H22.4v-1.067zm1.067-1.067H22.4v1.067h1.067v-1.067zm-2.133 0h-1.067v1.067h1.067v-1.067zM16 24.256h-1.066v1.067H16v-1.067zm0 2.133h-1.066v1.067H16v-1.067zm1.067-1.067H16v1.067h1.067v-1.067zm-2.133 0h-1.067v1.067h1.067v-1.067zm-9.067-19.2H4.801v1.066h1.066V6.122zm0 2.134H4.801v1.066h1.066V8.256zm1.066-1.067H5.866v1.067h1.066V7.189zm-2.133 0H3.733v1.067H4.8V7.189z"
        style="fill:var(--color2, #2196f3)" />
      <path fill="#212121"
        d="M24.715 14.16a1.776 1.776 0 0 0-1.179-.703l-.009-.001a1.769 1.769 0 0 0-1.344.355l.004-.003-1.253.96-1.898 1.417-1.358-.541c2.421-1.086 4.113-3.508 4.113-6.32 0-3.823-3.122-6.934-6.961-6.934S7.869 5.5 7.869 9.324c0 1.386.415 2.674 1.12 3.759l-2.768-.024c-.009 0-.016.005-.023.005a.511.511 0 0 0-.159.033l.004-.001c-.013.005-.026.007-.038.013-.006.003-.013.003-.019.006l-3.233 1.596-.001.001-1.893.91a.5.5 0 0 0-.065.036l.001-.001a1.782 1.782 0 0 0-.594 2.306l-.005-.01c.22.424.592.742 1.043.885l.013.003a1.772 1.772 0 0 0 1.388-.133l-.009.005 1.388-.738 2.264-1.169 1.357-.008-5.442 5.415-.001.001-1.339 1.333a1.643 1.643 0 0 0-.491 1.173v.005a1.668 1.668 0 0 0 1.667 1.664h.002a1.67 1.67 0 0 0 1.18-.485l1.314-1.309 1.741-1.3.901.897L4.07 27.28a1.643 1.643 0 0 0-.491 1.173v.004a1.662 1.662 0 0 0 1.666 1.664h.003a1.67 1.67 0 0 0 1.18-.485l4.488-4.472c.007-.006.016-.009.022-.016l5.166-5.658 3.471.494a.474.474 0 0 0 .262-.032c.017-.006.032-.015.049-.023.019-.01.039-.015.058-.027l3.213-2.133c.012-.008.018-.021.029-.03.013-.01.029-.014.041-.026l1.271-1.191c.348-.326.564-.787.564-1.3 0-.4-.132-.769-.355-1.066l.003.005zM2.13 17.77a.706.706 0 0 1-.564.05l.005.001a.717.717 0 0 1-.215-1.258l.002-.001 1.314-.632.316.924.133.389-.992.527zm3.497-1.828-1.548.8-.255-.746-.184-.537 2.027-1.001-.04 1.484zm15.1-6.62c0 .918-.219 1.785-.599 2.56l-4.181-1.899a1.865 1.865 0 0 0-.782-1.384l-.006-.004 1.464-4.861c2.377.757 4.104 2.975 4.104 5.588zm-11.789 0c0-3.235 2.644-5.867 5.894-5.867.253 0 .5.022.745.053l-1.432 4.753c-.019 0-.037-.006-.057-.006h-.001a1.872 1.872 0 0 0-1.872 1.867 1.873 1.873 0 0 0 1.872 1.867h.001c.695 0 1.295-.383 1.618-.944l3.863 1.755a5.891 5.891 0 0 1-4.737 2.39c-3.25 0-5.894-2.632-5.894-5.867zm5.957.8c0 .441-.362.8-.806.8h-.001a.804.804 0 0 1-.804-.8c0-.441.361-.8.806-.8s.806.359.806.8zM2.464 25.146a.606.606 0 0 1-.855.001.591.591 0 0 1 0-.844l.962-.959.852.848-.959.954zm3.214 3.734a.606.606 0 0 1-.855.001.591.591 0 0 1 0-.844l.963-.959.852.848-.96.955zm3.482-3.469-.001.001-1.765 1.76-.852-.848 1.765-1.757a.527.527 0 0 0 .09-.136c.007-.014.02-.026.026-.04.016-.041.019-.085.026-.128.003-.025.014-.048.014-.073 0-.035-.013-.07-.02-.105-.006-.032-.006-.064-.019-.096a.536.536 0 0 0-.092-.138c-.01-.012-.014-.026-.025-.038h-.001l-.001-.002-1.607-1.6c-.017-.017-.039-.024-.058-.038a.491.491 0 0 0-.084-.056l-.003-.001a.527.527 0 0 0-.09-.031l-.003-.001a.502.502 0 0 0-.101-.02h-.025a.603.603 0 0 0-.075.005h.003c-.036.005-.069.009-.104.021s-.064.027-.094.045c-.02.011-.043.015-.061.029l-1.774 1.324-.901-.897 2.399-2.386 4.36 4.289-.928.919zm6.819-7.017c-.016-.002-.03.004-.046.003l-.027-.001a.562.562 0 0 0-.092.008h.003a.484.484 0 0 0-.187.07l.002-.001a.492.492 0 0 0-.083.061c-.013.011-.028.016-.04.029l-4.698 5.146-4.328-4.256 2.833-2.818a.535.535 0 0 0-.378-.911h-.002l-2.219.013.028-1.607 3.104.027a6.928 6.928 0 0 0 4.978 2.101h.003c.438 0 .864-.046 1.28-.122.04.032.08.064.129.085l2.41.96.152.758.178.886-3.003-.427zm4.041.178-.313-1.558 1.446-1.08.946 1.257-2.08 1.381zm3.753-2.831-.837.785-.931-1.236.831-.637a.735.735 0 0 1 .543-.143.718.718 0 0 1 .621.71.71.71 0 0 1-.226.521z"
        style="fill:var(--color1, #212121)" />
      <path fill="#212121"
        d="m13.602 18.544-2.143-2.134a.53.53 0 0 0-.752 0l-2.143 2.133a.535.535 0 0 0 0 .756l2.142 2.134a.53.53 0 0 0 .752 0l2.143-2.134a.532.532 0 0 0 0-.756zm-2.519 1.759-1.387-1.381 1.386-1.381 1.387 1.381-1.387 1.381zm6.081-15.232-.258 1.036c.071.018 1.738.452 1.738 2.149h1.067c0-2.017-1.666-2.965-2.547-3.184zm2.547 4.251h-1.067v1.066h1.067V9.322z"
        style="fill:var(--color1, #212121)" />
    </symbol>
    <symbol id="brand" viewBox="0 0 57 32">
      <path
        d="M14.27 23.859a.768.768 0 0 1 .197.56.756.756 0 0 1-.073.326l.002-.005a.83.83 0 0 1-.232.296l-.002.001a1.39 1.39 0 0 1-.885.24h.004-1.549v-3.301h1.517a1.377 1.377 0 0 1 .846.222l-.005-.003a.782.782 0 0 1 .227.277.71.71 0 0 1 .068.341.722.722 0 0 1-.176.505.842.842 0 0 1-.462.258.893.893 0 0 1 .523.283zm-1.816-.498h.649a.655.655 0 0 0 .412-.11.386.386 0 0 0 .109-.144l.001-.003a.358.358 0 0 0 .03-.145l-.001-.033v.001l.001-.028a.376.376 0 0 0-.031-.15l.001.002a.399.399 0 0 0-.108-.147h-.001a.665.665 0 0 0-.373-.113l-.054.002h.002-.638v.867zm1.124 1.266a.407.407 0 0 0 .118-.149l.001-.003a.37.37 0 0 0 .034-.158l-.001-.027v.001l.001-.024a.38.38 0 0 0-.037-.165l.001.002a.41.41 0 0 0-.121-.151l-.001-.001a.705.705 0 0 0-.397-.121l-.045.001h.002-.68v.908h.689a.727.727 0 0 0 .435-.115zm3.793.651-.843-1.291h-.317v1.291h-.726v-3.302h1.374a1.433 1.433 0 0 1 .96.284l-.004-.003a1.016 1.016 0 0 1 .329.735.99.99 0 0 1-.228.633l.001-.002a1.152 1.152 0 0 1-.649.335l-.006.001.899 1.319h-.789zm-1.161-1.74h.594c.412 0 .619-.166.619-.5l.001-.027a.464.464 0 0 0-.035-.176l.001.003a.494.494 0 0 0-.118-.171.68.68 0 0 0-.47-.133h.003-.601l.007 1.005zm5.129 1.075h-1.446l-.255.665h-.761l1.328-3.265h.823l1.323 3.265h-.761l-.25-.665zm-.194-.499-.529-1.394-.529 1.394h1.057zm5.16 1.164h-.72l-1.616-2.245v2.245h-.719v-3.302h.719l1.616 2.259v-2.259h.72v3.302zm4.113-.79a1.501 1.501 0 0 1-.652.582c-.28.132-.608.209-.955.209l-.062-.001h.003-1.282v-3.302h1.283l.06-.001c.345 0 .673.075.968.209l-.015-.006c.276.128.503.329.652.576a1.78 1.78 0 0 1 0 1.733zm-.825-.079c.196-.205.317-.482.318-.788 0-.289-.113-.569-.318-.788a1.317 1.317 0 0 0-.906-.281h.004-.5v2.138h.5a1.323 1.323 0 0 0 .905-.282l-.003.002zm-7.803-20.8s9.3 3.215 9.103 7.867v7.869s-9.294-3.216-9.1-7.869l-.003-7.867zm17.389 13.894a13.494 13.494 0 0 1 5.909-1.994v-2.464c-2.444.863-4.517 2.427-5.909 4.458z" />
      <path
        d="M38.124 18.245c1.437-2.651 3.93-4.696 6.964-5.716V5.431s-13.245 4.58-12.965 11.205v11.203s.59-.205 1.519-.589c0-.358 0-.719.043-1.083.274-3.075 1.87-5.925 4.439-7.924z" />
      <path
        d="M36.864 22.407c.069-.777.225-1.546.463-2.294-1.599 1.725-2.568 3.867-2.769 6.122-.02.213-.03.426-.036.645a36.805 36.805 0 0 0 2.761-1.334l-.214.105a10.624 10.624 0 0 1-.206-3.244zm.527.04a10.167 10.167 0 0 0 .175 3.003l-.012-.066c3.619-1.983 7.685-5.046 7.528-8.748v-.323c-2.586.265-5.004 1.3-6.885 2.946a10.02 10.02 0 0 0-.804 3.148l-.003.04z" />
    </symbol>
    <symbol id="clock" viewBox="0 0 32 32">
      <path fill="#212121"
        d="M31.296 15.301C31.295 6.849 24.441-.002 15.988 0S.685 6.855.687 15.308c.002 6.788 4.422 12.543 10.541 14.545l.108.031a.667.667 0 0 0 .529-.065.636.636 0 0 0 .283-.357l3.865-12.25a1.913 1.913 0 1 0-.852-3.63l.011-.005-5.106-5.107a.638.638 0 0 0-.902.902l5.103 5.109a1.847 1.847 0 0 0-.191.826c0 .602.283 1.137.723 1.48l.004.003-3.682 11.673C3.843 25.782.117 17.709 2.797 10.431S13.551-.573 20.829 2.108c7.278 2.681 11.004 10.754 8.323 18.032-1.345 3.581-4.003 6.406-7.374 7.938l-.088.036-.398-1.874a.639.639 0 0 0-1.05-.343l.001-.001-3.837 3.426a.637.637 0 0 0 .227 1.083l.005.001 4.899 1.563a.637.637 0 0 0 .818-.744l.001.004-.391-1.839c5.528-2.374 9.329-7.772 9.329-14.057v-.034.002zm-15.304-.637a.638.638 0 0 1 0 1.276.638.638 0 0 1 0-1.276zm2.1 14.864 2.184-1.948.603 2.84-2.787-.892z"
        style="fill:var(--color1, #212121)" />
      <path fill="#2196f3"
        d="M15.354 3.185V4.46a.638.638 0 0 0 1.276 0V3.185a.638.638 0 1 0-1.276 0zM3.876 14.664a.638.638 0 0 0 0 1.276h1.275a.638.638 0 0 0 0-1.276H3.876zm24.232 1.275a.638.638 0 0 0 0-1.276h-1.275a.638.638 0 0 0 0 1.276h1.275z"
        style="fill:var(--color2, #2196f3)" />
    </symbol>
    <symbol id="company-one" viewBox="0 0 54 32">
      <path
        d="M25.455 3.015h-.07c-.107-.007-.213-.009-.32-.012h-.231c-.202 0-.407.005-.612.015l-.023-.001-.024.001h.001a14.325 14.325 0 0 0-5.428 1.4l.086-.037-.219.106v11.247l.514-.175c.451-.155.932-.295 1.429-.424a16.947 16.947 0 0 1 4.1-.546h.012v1.478c-.184.001-.362.006-.541.015h-.043a16.494 16.494 0 0 0-3.278.511l.114-.025a16.023 16.023 0 0 0-3.852 1.511l.083-.042V3.613a14.743 14.743 0 0 1 3.85-1.585l.105-.023c1.117-.3 2.4-.475 3.723-.48h.22c.26.007.513.018.751.036a10.72 10.72 0 0 1 1.857.296v1.454a10.941 10.941 0 0 0-1.761-.269l-.037-.002-.037-.003a4.303 4.303 0 0 0-.368-.021zm2.559 1.486c.323.025.657.037.995.037a16.006 16.006 0 0 0 4.029-.528l-.111.025a16.05 16.05 0 0 0 3.85-1.512l-.083.042v14.166a14.826 14.826 0 0 1-3.85 1.585l-.105.023c-1.117.299-2.4.474-3.723.479h-.094a11.4 11.4 0 0 1-2.814-.351l.079.017V4.225a11.24 11.24 0 0 0 1.829.274zm7.21.11-.514.173c-.472.159-.95.301-1.429.428-1.28.343-2.75.542-4.266.548h-.003c-.335 0-.644-.009-.942-.028l-.41-.027v11.569l.352.03c.326.029.663.043 1.002.043a13.67 13.67 0 0 0 3.458-.457l-.095.022a14.013 14.013 0 0 0 2.712-.981l-.084.037.219-.106V4.612zM18.152 22.965a.755.755 0 0 0-.545-.232h-.028.001-.012a.85.85 0 0 0-.324.064l.006-.002a.748.748 0 0 0-.421.423l-.002.005a.832.832 0 0 0-.059.319v1.927a.893.893 0 0 0 .076.395.681.681 0 0 0 .457.396c.094.026.191.04.288.04a.816.816 0 0 0 .799-.811v-.215h-.504v.184a.438.438 0 0 1-.031.163l.001-.003a.308.308 0 0 1-.073.109.356.356 0 0 1-.21.074.252.252 0 0 1-.235-.103v-.001a.454.454 0 0 1-.067-.239v-.02.001-1.797a.611.611 0 0 1 .062-.288.259.259 0 0 1 .247-.116h-.001.01a.27.27 0 0 1 .215.108v.001a.407.407 0 0 1 .083.248v.011-.001.167h.499V23.566a.912.912 0 0 0-.064-.335l.002.006a.812.812 0 0 0-.169-.272zm2.993-.021a.88.88 0 0 0-.874-.158.798.798 0 0 0-.46.422l-.002.005a.9.9 0 0 0-.074.373v1.848a.877.877 0 0 0 .074.378c.046.1.112.188.195.259a.803.803 0 0 0 .266.163.87.87 0 0 0 .875-.164l-.001.001a.787.787 0 0 0 .19-.259.892.892 0 0 0 .074-.378V23.57a.889.889 0 0 0-.076-.362l.002.006a.834.834 0 0 0-.19-.27zm-.235 2.49.001.028a.332.332 0 0 1-.101.239.366.366 0 0 1-.475-.001h.001a.328.328 0 0 1-.101-.238l.001-.031v.001-1.848l-.001-.029c0-.094.039-.178.101-.239a.366.366 0 0 1 .475.001h-.001c.063.06.101.145.101.238l-.001.03v-.001 1.849zm4.165.826v-3.5h-.484l-.636 1.852h-.009l-.642-1.852h-.479v3.499h.5v-2.128h.009l.489 1.505h.249l.493-1.505h.009v2.128h.5zm2.84-3.254a.71.71 0 0 0-.282-.192 1.077 1.077 0 0 0-.343-.055h-.762v3.5h.499v-1.367h.256a.912.912 0 0 0 .45-.096.733.733 0 0 0 .272-.264l.002-.003a.854.854 0 0 0 .114-.305c.017-.11.027-.237.027-.366v-.033.002a2.002 2.002 0 0 0-.049-.5.748.748 0 0 0-.184-.322zm-.257 1.067a.44.44 0 0 1-.047.185l.001-.003a.283.283 0 0 1-.127.122l-.002.001a.511.511 0 0 1-.209.045l-.027-.001h.001-.228v-1.19h.257l.024-.001c.073 0 .142.016.204.046l-.003-.001c.051.03.092.074.116.127l.001.002a.523.523 0 0 1 .044.195v.233c0 .081.005.166 0 .24h-.005zm2.619-1.312h-.409l-.771 3.5h.499l.146-.752h.68l.146.752h.498l-.79-3.5zm-.46 2.271.245-1.268h.009l.244 1.268h-.498zm3.681-.163h-.009l-.753-2.108h-.48v3.5h.498v-2.104h.01l.762 2.104h.469v-3.499h-.498v2.108zm3.047-2.108-.401 1.392h-.01l-.401-1.392h-.527l.685 2.021v1.479h.499v-1.479l.685-2.02h-.528zm-19.783 4.487h.24v.674h.163v-.675h.239v-.138h-.642v.139zm2.02-.138-.315.813h.173l.067-.185h.324l.069.185h.178l-.323-.813h-.173zm-.025.491.11-.301.11.301h-.221zm2.022.022h.188v.105a.315.315 0 0 1-.193.069h-.012a.204.204 0 0 1-.161-.078.336.336 0 0 1-.06-.194l.001-.019v.001c0-.181.078-.271.234-.271l.018-.001c.08 0 .147.055.166.129v.001l.16-.032c-.035-.158-.149-.239-.344-.239h-.011a.407.407 0 0 0-.273.105.395.395 0 0 0-.117.314v-.001.019c0 .109.04.209.105.286l-.001-.001c.072.074.172.12.283.12l.026-.001h-.001.013a.483.483 0 0 0 .331-.13v-.32h-.352v.137zm2.039-.513h-.165v.813h.569v-.138h-.404v-.675zm1.724 0h-.165v.813h.165v-.813zm1.686.542-.333-.542h-.159v.813h.152v-.531l.327.531h.164v-.813h-.151v.543zm1.524-.088h.405v-.138h-.405v-.178h.435v-.139h-.6v.813h.617v-.138h-.452v-.22zm3.695-.134h-.32v-.32h-.163v.812h.163v-.356h.32v.356h.164v-.813h-.164v.32zm1.533.134h.406v-.138h-.406v-.178h.437v-.139h-.599v.813h.616v-.138h-.452v-.22zm2.079.001c.142-.022.213-.097.213-.226l.001-.023a.196.196 0 0 0-.081-.158h-.001a.45.45 0 0 0-.206-.049l-.033.001h.001-.344v.812h.164v-.34h.045c.032 0 .062.007.09.019l-.001-.001a.172.172 0 0 1 .058.059l.177.258h.195l-.099-.158a.572.572 0 0 0-.178-.194l-.002-.001zm-.164-.113h-.12v-.204h.129l.034-.001c.047 0 .092.008.134.022l-.003-.001a.106.106 0 0 1-.008.164.451.451 0 0 1-.136.02l-.032-.001h.001zm1.732.112h.404v-.138h-.404v-.178h.437v-.139h-.601v.813h.617v-.138h-.452v-.22z" />
    </symbol>
    <symbol id="company-tag" viewBox="0 0 57 32">
      <path
        d="M28.493 14.618a1.563 1.563 0 0 1-.322-1.065v.005-1.538c0-.471.107-.829.321-1.075.213-.245.581-.367 1.101-.366.489 0 .837.105 1.042.313.224.266.333.591.308.919v.362h-.875v-.366a1.799 1.799 0 0 0-.026-.358.34.34 0 0 0-.125-.212l-.001-.001a.499.499 0 0 0-.279-.084l-.039.001h.002l-.038-.001a.53.53 0 0 0-.297.09l.002-.001a.415.415 0 0 0-.145.232v.003a1.74 1.74 0 0 0-.035.351v.031-.002 1.866c-.014.18.025.36.112.524.045.056.104.1.172.126l.003.001a.48.48 0 0 0 .228.029H29.6a.47.47 0 0 0 .311-.086l-.002.001a.37.37 0 0 0 .13-.224v-.002c.02-.124.03-.249.027-.374v-.379h.875v.346a1.397 1.397 0 0 1-.305.969l.002-.003c-.201.228-.544.342-1.047.342s-.884-.122-1.1-.375zm3.644.016c-.221-.24-.332-.588-.332-1.05v-1.618c0-.457.11-.803.332-1.037s.59-.351 1.109-.35c.515 0 .882.117 1.103.35.221.235.333.58.333 1.037v1.617c0 .457-.112.807-.337 1.049s-.59.361-1.1.361-.886-.122-1.109-.359zm1.516-.389a.902.902 0 0 0 .105-.478v-1.981a.872.872 0 0 0-.105-.474l.002.005a.425.425 0 0 0-.176-.128l-.003-.001a.473.473 0 0 0-.233-.027h.002a.49.49 0 0 0-.235.028l.003-.001a.416.416 0 0 0-.179.128l-.001.001a.855.855 0 0 0-.105.469v1.99a.888.888 0 0 0 .105.479.605.605 0 0 0 .639.116l-.004.001a.563.563 0 0 0 .185-.118v-.01zm2.082-3.619h.942l.708 2.984.725-2.984h.916l.093 4.307h-.678l-.073-2.994-.699 2.994h-.544l-.724-3.005-.067 3.005h-.685l.085-4.307zm4.441 0h1.468c.845 0 1.268.407 1.268 1.223 0 .781-.445 1.171-1.335 1.17h-.5v1.914h-.906l.005-4.308zm1.254 1.841a.707.707 0 0 0 .498-.136.699.699 0 0 0 .131-.486 1.325 1.325 0 0 0-.046-.4l.002.009a.317.317 0 0 0-.067-.119.386.386 0 0 0-.112-.085l-.002-.001a.913.913 0 0 0-.357-.071l-.05.001h.002-.351v1.287h.352zm2.789-1.841h.973l.998 4.307h-.845l-.197-.993h-.868l-.203.993h-.857l.998-4.307zm.831 2.816-.339-1.808-.339 1.808h.677zm1.946-2.816h.635l1.213 2.457v-2.457h.752v4.307h-.603l-1.221-2.565v2.565h-.777l.002-4.307zm4.361 2.665-1.009-2.659h.85l.616 1.708.578-1.708h.832l-.997 2.659v1.642h-.869V13.29zm-21.465 3.526v.225h-.739v1.75h-.31v-1.75H28.1v-.225h1.792zm2.318 1.976h-.246a.105.105 0 0 1-.061-.019.1.1 0 0 1-.039-.045v-.001l-.214-.469h-1.026l-.213.469a.126.126 0 0 1-.033.053.108.108 0 0 1-.062.019h-.245l.906-1.975h.315l.917 1.968zm-1.501-.734h.855l-.363-.804a1.278 1.278 0 0 1-.064-.176l-.003-.01-.034.105-.033.083-.358.803zm3.062.539a1.018 1.018 0 0 0 .316-.023 1.018 1.018 0 0 0 .252-.085v-.444h-.365a.076.076 0 0 1-.046-.016c-.006-.004-.01-.01-.014-.016a.034.034 0 0 1-.004-.018v-.153h.703v.757c-.11.068-.237.123-.372.158l-.01.002c-.075.019-.15.033-.227.041a2.598 2.598 0 0 1-.265.012h-.011c-.159 0-.312-.027-.455-.077l.01.003a1.123 1.123 0 0 1-.364-.208l.002.001a.952.952 0 0 1-.231-.307l-.002-.006a.965.965 0 0 1-.083-.397v-.013.001-.012c0-.145.03-.283.084-.407l-.003.007a.907.907 0 0 1 .234-.313c.103-.089.227-.158.363-.205.155-.051.32-.076.485-.074.084 0 .169.005.252.017.074.011.146.027.215.05.064.02.124.047.181.078.055.031.108.065.158.103l-.087.122a.073.073 0 0 1-.029.026.093.093 0 0 1-.042.011.111.111 0 0 1-.057-.016h.001a.892.892 0 0 1-.094-.05l.005.003a.814.814 0 0 0-.115-.052l-.006-.002a1.027 1.027 0 0 0-.16-.043l-.007-.001a1.34 1.34 0 0 0-.218-.017h-.013.001-.011c-.121 0-.238.02-.346.057l.008-.002a.774.774 0 0 0-.267.156.672.672 0 0 0-.166.241l-.002.005a.917.917 0 0 0 .002.665l-.002-.006a.76.76 0 0 0 .445.405c.115.034.237.047.359.039zm2.888-.031h.989v.225h-1.291v-1.975h.309l-.007 1.75zm2.018.226h-.309v-1.975h.309v1.975zm1.153-1.966a.14.14 0 0 1 .047.036l1.324 1.489-.001-.035.001-.037v.002-1.472h.27v1.984h-.166a.14.14 0 0 1-.058-.012h.001a.162.162 0 0 1-.048-.037l-1.323-1.488v1.536h-.259v-1.975h.161c.018 0 .035.003.051.009zm3.923-.01v.217h-1.098v.652h.89v.21h-.89v.674h1.098v.218h-1.417v-1.971h1.417zm-32.467-12.2 13.757 3.372v11.818l-13.757-3.371V4.616zm-.882-1.008V17.01l15.52 3.806V7.417L10.404 3.61z" />
      <path d="M18.722 27.036 3.2 23.227V9.828l15.522 3.807v13.401z" />
      <path
        d="m10.661 4.465 13.578 3.33-5.774 4.987L4.886 9.45l5.776-4.986zm-.257-.856L3.2 9.828l15.522 3.808 7.202-6.22-15.52-3.807zm9.191 22.673 6.329-5.466-6.33-1.552v7.019z" />
    </symbol>
    <symbol id="company-two" viewBox="0 0 57 32">
      <path
        d="M19.417 26.187a.07.07 0 0 1 .046.018l.116.111a.964.964 0 0 1-.327.211 1.254 1.254 0 0 1-.434.076h-.032.002a1.213 1.213 0 0 1-.436-.071.958.958 0 0 1-.33-.2l.001.001a.908.908 0 0 1-.21-.302l-.002-.006a1.016 1.016 0 0 1-.075-.385v-.012.001-.02c0-.272.118-.516.305-.684l.001-.001a1.06 1.06 0 0 1 .349-.201c.143-.048.296-.072.45-.07h.028c.139 0 .273.024.398.067l-.009-.003c.115.044.221.104.313.179l-.098.118a.12.12 0 0 1-.024.021.064.064 0 0 1-.034.009h-.006a.102.102 0 0 1-.043-.012L19.314 25l-.073-.041a.823.823 0 0 0-.225-.07l-.005-.001a1 1 0 0 0-.161-.013h-.013.001-.011a.963.963 0 0 0-.319.055l.007-.002a.734.734 0 0 0-.254.15l.001-.001a.67.67 0 0 0-.164.237.774.774 0 0 0-.059.302v.011-.001.013c0 .11.022.215.061.311l-.002-.005a.707.707 0 0 0 .162.236.662.662 0 0 0 .242.147.886.886 0 0 0 .299.051c.059.001.119-.003.178-.01a.696.696 0 0 0 .385-.164l-.001.001a.088.088 0 0 1 .055-.02zm3.358-.558v.012a.958.958 0 0 1-.081.387l.002-.006a.864.864 0 0 1-.218.304l-.001.001a1.01 1.01 0 0 1-.337.198l-.007.002a1.409 1.409 0 0 1-.894-.003l.01.003a1.016 1.016 0 0 1-.342-.202l.001.001a.893.893 0 0 1-.219-.303l-.002-.006a1.024 1.024 0 0 1 .003-.793l-.003.007a.925.925 0 0 1 .221-.309c.097-.085.213-.15.341-.194a1.383 1.383 0 0 1 .894.003l-.01-.003c.129.045.246.114.343.201a.903.903 0 0 1 .298.701zm-.305 0v-.017a.812.812 0 0 0-.058-.305l.002.006a.656.656 0 0 0-.396-.384l-.005-.001a1.027 1.027 0 0 0-.65.002l.007-.002a.682.682 0 0 0-.246.15.626.626 0 0 0-.156.232l-.001.004a.91.91 0 0 0 .003.638l-.002-.006a.652.652 0 0 0 .399.383l.005.001c.207.068.435.068.643 0a.685.685 0 0 0 .245-.148.662.662 0 0 0 .156-.236.817.817 0 0 0 .055-.316zm2.597.331.031.07c.011-.025.021-.048.033-.07a.937.937 0 0 1 .039-.072l-.002.003.743-1.174c.015-.02.028-.033.043-.037s.033-.007.051-.007h.23v1.909h-.26v-1.463l-.001-.033.001-.035v.002l-.748 1.19a.111.111 0 0 1-.043.043h-.001a.13.13 0 0 1-.063.016H25.075a.134.134 0 0 1-.063-.016h.001a.111.111 0 0 1-.043-.043v-.001l-.77-1.198v1.532h-.251v-1.905h.229c.018 0 .036.002.052.007h-.001a.087.087 0 0 1 .041.037l.759 1.175c.014.02.026.042.037.066l.001.003zm2.796-.095v.715h-.29v-1.906h.649c.123-.002.244.012.362.042a.724.724 0 0 1 .256.119.499.499 0 0 1 .144.184l.001.003a.577.577 0 0 1 .05.244v.012a.53.53 0 0 1-.209.422l-.001.001a.757.757 0 0 1-.258.126 1.208 1.208 0 0 1-.327.044h-.024l-.351-.005zm0-.205h.352a.82.82 0 0 0 .226-.029.488.488 0 0 0 .164-.083l-.001.001a.365.365 0 0 0 .133-.282v-.005l.001-.021a.33.33 0 0 0-.03-.137l.001.002a.371.371 0 0 0-.101-.13l-.001-.001a.621.621 0 0 0-.345-.104l-.048.002h.002-.352v.786zm3.909.922h-.233a.111.111 0 0 1-.06-.018.116.116 0 0 1-.038-.044v-.001l-.197-.461h-.994l-.205.461a.11.11 0 0 1-.099.062h-.233l.873-1.909h.302l.884 1.909zm-1.44-.708h.82l-.346-.777a1.33 1.33 0 0 1-.066-.179l-.034.1a.652.652 0 0 1-.032.081l-.343.775zm2.697-1.191a.12.12 0 0 1 .043.034l1.273 1.439v-1.482h.26v1.909h-.148a.135.135 0 0 1-.057-.012h.001a.165.165 0 0 1-.047-.035l-1.27-1.438.001.033-.001.034v-.002 1.419h-.26v-1.909h.154a.15.15 0 0 1 .052.009zm3.719 1.14v.758h-.291v-.757l-.804-1.15h.266c.021 0 .04.006.056.016a.175.175 0 0 1 .039.043l.503.742a1.118 1.118 0 0 1 .089.17l.037-.082a.63.63 0 0 1 .05-.087l.496-.747a.202.202 0 0 1 .037-.04.095.095 0 0 1 .057-.019h.269l-.805 1.155zM24.923 21.47c.126.014.254.025.384.035 1.962-.763 3.622-2.011 4.772-3.588s1.739-3.415 1.694-5.282l-2.162-1.878c.439 1.988.234 4.043-.594 5.935s-2.245 3.547-4.094 4.779z" />
      <path
        d="m24.151 21.382.058.011c1.975-1.228 3.481-2.942 4.323-4.922s.981-4.133.4-6.181l-3.08-2.676c1.245 2.199 1.747 4.661 1.445 7.099-.301 2.437-1.392 4.75-3.147 6.669zm10.445-6.541c-.523 2.052-1.794 3.902-3.623 5.276-.5.38-1.064.737-1.658 1.043l-.065.03c1.49-.38 2.859-1.053 4.003-1.966s2.03-2.042 2.592-3.3l-1.249-1.084z" />
      <path
        d="m34.106 14.539-1.778-1.545c-.034 1.762-.611 3.483-1.669 4.986s-2.562 2.732-4.352 3.559h.009c.399 0 .797-.021 1.194-.062 1.673-.594 3.151-1.538 4.302-2.748s1.94-2.65 2.295-4.189zm-9.697-8.054L22.287 4.64c-1.897.637-3.527 1.756-4.68 3.212s-1.772 3.179-1.778 4.946c.007 1.952.763 3.846 2.149 5.383 1.385 1.536 3.321 2.628 5.501 3.101 1.946-2.06 3.085-4.605 3.252-7.266s-.647-5.299-2.323-7.531zm14.599 7.769c-.007-2.316-1.07-4.535-2.955-6.173s-4.439-2.561-7.105-2.567h-.021a11.28 11.28 0 0 0-3.66.606l.079-.024 12.989 11.286a7.537 7.537 0 0 0 .672-3.128z" />
    </symbol>
    <symbol id="diagram" viewBox="0 0 32 32">
      <path fill="#2196f3"
        d="M14.926 14.965h1.066v4.798h-1.066v-4.798zm4.264 2.132h1.066v2.665H19.19v-2.665zm-8.529 1.599h1.066v1.066h-1.066v-1.066zm-3.198-.533h1.066v1.599H7.463v-1.599z"
        style="fill:var(--color2, #2196f3)" />
      <path fill="#212121"
        d="M1.599 28.291h25.586a1.6 1.6 0 0 0 1.599-1.599V24.56a1.6 1.6 0 0 0-1.599-1.599h-.533V9.667l3.028-2.868a1.608 1.608 0 1 0-.742-.752l-.004-.01-2.281 2.162v-1.23a1.6 1.6 0 0 0-1.599-1.599H3.731a1.6 1.6 0 0 0-1.599 1.599v15.992h-.533A1.6 1.6 0 0 0 0 24.56v2.132a1.6 1.6 0 0 0 1.599 1.599zM30.384 4.837a.533.533 0 0 1 0 1.066.533.533 0 0 1 0-1.066zM3.198 6.969c0-.294.239-.533.533-.533h21.323c.294 0 .533.239.533.533v2.239l-1.066 1.013V8.036a.534.534 0 0 0-.534-.534H4.798a.534.534 0 0 0-.534.533v13.327c0 .294.239.533.534.533h19.189a.534.534 0 0 0 .534-.533v-9.675l1.066-1.01V22.96H3.198V6.969zm4.798 6.93h-.005a1.6 1.6 0 1 0 1.112 2.748l1.853.93a.535.535 0 0 0 .636-.122l3.939-4.432 3.872 2.902a.534.534 0 0 0 .686-.039l3.365-3.188v8.131H5.331V8.568h18.123v2.661l-3.771 3.572-3.904-2.927a.534.534 0 0 0-.718.071v.001l-3.993 4.493-1.493-.746c.011-.064.017-.128.02-.193a1.6 1.6 0 0 0-1.599-1.599zm.533 1.599a.533.533 0 0 1-1.066 0 .533.533 0 0 1 1.066 0zm3.198 8.528h5.33v.533a.533.533 0 0 1-.533.533h-4.265a.533.533 0 0 1-.533-.533v-.533zm-10.66.534c0-.294.238-.533.533-.533h9.062v.533a1.6 1.6 0 0 0 1.599 1.599h4.265a1.6 1.6 0 0 0 1.599-1.599v-.533h9.062c.294 0 .533.239.533.533v2.132a.533.533 0 0 1-.533.533H1.601a.533.533 0 0 1-.533-.533V24.56z"
        style="fill:var(--color1, #212121)" />
    </symbol>
    <symbol id="fb" viewBox="0 0 32 32">
      <path
        d="M21.328 5.312h2.923v-5.088c-1.232-0.143-2.66-0.224-4.108-0.224-0.052 0-0.104 0-0.156 0l0.008-0c-4.213 0-7.099 2.65-7.099 7.52v4.48h-4.646v5.688h4.646v14.312h5.699v-14.31h4.459l0.707-5.688h-5.168v-3.922c0-1.643 0.443-2.768 2.734-2.768z">
      </path>
    </symbol>
    <symbol id="fb-colorized" viewBox="0 0 32 32">
      <path fill="#fff"
        d="M32 16v.021a15.9 15.9 0 0 1-4.686 11.293 15.902 15.902 0 0 1-11.293 4.687h-.022H16h-.02a15.9 15.9 0 0 1-11.293-4.686A15.902 15.902 0 0 1 0 16.022v-.021.001-.02A15.9 15.9 0 0 1 4.686 4.689 15.902 15.902 0 0 1 15.979.002H16h-.001.02a15.9 15.9 0 0 1 11.293 4.686 15.902 15.902 0 0 1 4.687 11.293v.021-.001z"
        opacity=".1" style="fill:var(--color4, #fff)" />
      <path fill="#fff"
        d="M18.422 11.142h1.329V8.829c-.56-.065-1.21-.102-1.867-.102h-.071.004c-1.915 0-3.226 1.204-3.226 3.418v2.036h-2.113v2.585h2.113v6.505h2.591v-6.505h2.027l.322-2.585h-2.35v-1.782c0-.747.201-1.258 1.243-1.258z"
        style="fill:var(--color4, #fff)" />
    </symbol>
    <symbol id="foster" viewBox="0 0 57 32">
      <path
        d="M12.878 11.255h-.002c-1.279 0-2.316.921-2.316 2.058v.002c0 1.137 1.037 2.058 2.316 2.058h.002c1.279 0 2.316-.922 2.316-2.058v-.001c0-1.137-1.037-2.059-2.316-2.059zm17.093-.658c-.004-1.579-.711-3.092-1.967-4.209s-2.958-1.745-4.734-1.749c-1.777.003-3.481.631-4.737 1.748s-1.964 2.63-1.968 4.209v8.706s13.405-1.327 13.406-8.704v-.002zM5.867 22.16c.003 1.099.496 2.151 1.37 2.928s2.058 1.214 3.294 1.218c1.236-.003 2.42-.441 3.294-1.218s1.366-1.829 1.37-2.927v-6.058s-9.327.924-9.327 6.057zm4.663 1.085c-.242 0-.477-.063-.678-.183a1.136 1.136 0 0 1-.447-.48l-.003-.007a.951.951 0 0 1-.068-.634l-.001.007c.047-.211.163-.404.334-.556s.388-.255.625-.297a1.363 1.363 0 0 1 .715.064l-.009-.003c.223.082.414.221.548.4s.206.388.206.603a.963.963 0 0 1-.092.417 1.095 1.095 0 0 1-.263.352l-.001.001a1.323 1.323 0 0 1-.864.319h-.001v-.004zm9.426-.598h-.9v.93h-.469v-2.276h1.482v.38h-1.013v.588h.9v.378zm2.253-.156c0 .224-.039.42-.118.589a.893.893 0 0 1-.83.529h-.018.001a.943.943 0 0 1-.505-.136.917.917 0 0 1-.341-.382l-.002-.006a1.319 1.319 0 0 1-.123-.561v-.021.001-.112c0-.224.04-.421.12-.591a.895.895 0 0 1 .342-.392c.148-.092.316-.138.506-.138s.357.046.505.138a.888.888 0 0 1 .342.392c.081.17.122.366.122.589v.101zm-.475-.103c0-.238-.043-.42-.128-.544a.417.417 0 0 0-.348-.186h-.019.001-.018a.419.419 0 0 0-.346.183l-.001.001c-.085.122-.129.301-.13.538v.111c0 .232.043.412.128.54s.208.192.369.192h.018a.413.413 0 0 0 .343-.183l.001-.001c.084-.124.127-.304.128-.541v-.111zm1.995.592v-.013a.24.24 0 0 0-.093-.189h-.001a1.185 1.185 0 0 0-.338-.15c-.15-.047-.278-.1-.399-.163l.014.006c-.259-.14-.388-.328-.388-.564 0-.123.034-.233.103-.328a.691.691 0 0 1 .299-.227 1.13 1.13 0 0 1 .437-.081c.163 0 .307.029.435.089a.677.677 0 0 1 .295.249.646.646 0 0 1 .107.365h-.469c0-.104-.032-.185-.098-.242a.4.4 0 0 0-.276-.087.426.426 0 0 0-.267.074.228.228 0 0 0-.096.185v.006c0 .074.037.136.111.186.075.05.185.097.33.14.267.08.461.18.583.299s.183.267.183.444c0 .197-.075.352-.224.464s-.349.167-.601.167c-.175 0-.334-.032-.478-.096a.77.77 0 0 1-.328-.261l-.002-.002a.672.672 0 0 1-.112-.373v-.015.001h.47c0 .251.15.377.45.377a.442.442 0 0 0 .261-.067.223.223 0 0 0 .093-.182v-.009zm2.502-1.298h-.697v1.895h-.469v-1.895h-.686v-.38h1.853v.38zm1.637.909h-.9v.61h1.056v.377h-1.525v-2.276h1.522v.38h-1.053v.542h.9v.367zm1.274.153h-.373v.833H28.3v-2.276h.845c.269 0 .476.06.622.18s.219.289.219.508a.705.705 0 0 1-.101.389.69.69 0 0 1-.3.245l-.005.002.492.93v.021h-.503l-.427-.832zm-.373-.38h.379a.387.387 0 0 0 .273-.089.323.323 0 0 0 .097-.231v-.018.001c0-.108-.03-.192-.092-.253s-.154-.092-.28-.092h-.377v.683zm2.84.411v.802h-.469v-2.276h.887c.171 0 .321.031.45.094.13.062.23.151.3.267a.746.746 0 0 1 .105.392.657.657 0 0 1-.229.528c-.153.128-.363.193-.633.193h-.411zm0-.379h.419c.124 0 .219-.029.283-.087a.317.317 0 0 0 .099-.25v-.017a.372.372 0 0 0-.099-.254.37.37 0 0 0-.272-.106h-.43v.715zm2.965.195h-.9v.61h1.056v.377h-1.525v-2.276h1.522v.38h-1.053v.542h.9v.367zm2.176-.909h-.697v1.895h-.469v-1.895h-.687v-.38h1.853v.38zm1.637.909h-.899v.61h1.056v.377h-1.525v-2.276h1.522v.38h-1.053v.542h.9v.367zm1.274.153h-.373v.833h-.469v-2.276h.846c.269 0 .476.06.622.18s.219.289.219.508a.705.705 0 0 1-.101.389.687.687 0 0 1-.301.245l-.005.002.492.93v.021h-.503l-.427-.832zm-.374-.38h.378c.117 0 .209-.029.273-.089a.324.324 0 0 0 .097-.232v-.018.001a.338.338 0 0 0-.092-.253c-.06-.061-.154-.092-.279-.092h-.377v.683zm2.755.616v-.013a.237.237 0 0 0-.094-.189h-.001a1.185 1.185 0 0 0-.338-.15c-.15-.047-.278-.1-.399-.163l.014.006c-.259-.14-.388-.328-.388-.564 0-.123.035-.233.103-.328a.691.691 0 0 1 .299-.227 1.13 1.13 0 0 1 .437-.081c.163 0 .307.029.435.089a.677.677 0 0 1 .295.249.646.646 0 0 1 .107.365h-.469c0-.104-.032-.185-.098-.242a.4.4 0 0 0-.276-.087.426.426 0 0 0-.267.074.229.229 0 0 0-.096.186v.005c0 .074.037.136.111.186s.185.097.33.14c.267.08.461.18.583.299s.183.267.183.444c0 .197-.075.352-.224.464s-.349.167-.601.167c-.175 0-.334-.032-.478-.096a.77.77 0 0 1-.328-.261l-.002-.002a.672.672 0 0 1-.112-.373v-.015.001h.47c0 .251.15.377.45.377a.442.442 0 0 0 .261-.067.224.224 0 0 0 .094-.182v-.009z" />
    </symbol>
    <symbol id="in" viewBox="0 0 32 32">
      <path
        d="M31.992 32h0.008v-11.738c0-5.741-1.237-10.163-7.947-10.163-3.227 0-5.392 1.77-6.277 3.45h-0.093v-2.914h-6.365v21.363h6.627v-10.578c0-2.786 0.528-5.48 3.978-5.48 3.398 0 3.448 3.179 3.448 5.658v10.402h6.621zM0.528 10.635h6.635v21.365h-6.635v-21.365zM3.843 0c-2.123 0-3.843 1.721-3.843 3.843v0c0 2.12 1.722 3.878 3.843 3.878 2.12 0 3.842-1.757 3.842-3.878s-1.72-3.841-3.841-3.843h-0z">
      </path>
    </symbol>
    <symbol id="in-colorized" viewBox="0 0 32 32">
      <path fill="#fff"
        d="M32 16v.021a15.9 15.9 0 0 1-4.686 11.293 15.902 15.902 0 0 1-11.293 4.687h-.022H16h-.02a15.9 15.9 0 0 1-11.293-4.686A15.902 15.902 0 0 1 0 16.022v-.021.001-.02A15.9 15.9 0 0 1 4.686 4.689 15.902 15.902 0 0 1 15.979.002H16h-.001.02a15.9 15.9 0 0 1 11.293 4.686 15.902 15.902 0 0 1 4.687 11.293v.021-.001z"
        opacity=".1" style="fill:var(--color4, #fff)" />
      <path fill="#fff"
        d="M23.269 23.273h.004v-5.335c0-2.609-.562-4.62-3.613-4.62-1.466 0-2.451.804-2.852 1.568h-.042v-1.324h-2.893v9.711h3.012v-4.808c0-1.266.24-2.491 1.808-2.491 1.545 0 1.567 1.445 1.567 2.572v4.728h3.009zM8.967 13.562h3.016v9.711H8.967v-9.711zm1.507-4.835c-.965 0-1.747.782-1.747 1.747 0 .964.783 1.763 1.747 1.763s1.746-.799 1.746-1.763c0-.964-.782-1.746-1.746-1.747z"
        style="fill:var(--color4, #fff)" />
    </symbol>
    <symbol id="insta" viewBox="0 0 32 32">
      <path
        d="M31.968 9.408c-0.074-1.701-0.349-2.869-0.742-3.882-0.424-1.111-1.054-2.059-1.85-2.837l-0.001-0.001c-0.78-0.792-1.724-1.419-2.778-1.827l-0.054-0.018c-1.019-0.394-2.181-0.667-3.882-0.742-1.712-0.082-2.256-0.101-6.602-0.101-4.344 0-4.888 0.019-6.595 0.094-1.699 0.074-2.869 0.349-3.88 0.742-1.112 0.424-2.060 1.054-2.839 1.85l-0.001 0.001c-0.791 0.78-1.418 1.724-1.825 2.778l-0.018 0.054c-0.395 1.019-0.669 2.181-0.744 3.882-0.082 1.712-0.101 2.256-0.101 6.602 0 4.344 0.019 4.888 0.094 6.595 0.075 1.701 0.35 2.869 0.744 3.882 0.426 1.11 1.055 2.057 1.849 2.837l0.001 0.001c0.8 0.813 1.77 1.443 2.832 1.843 1.019 0.395 2.182 0.67 3.882 0.744 1.707 0.075 2.251 0.094 6.595 0.094 4.346 0 4.89-0.019 6.595-0.094 1.701-0.074 2.869-0.349 3.882-0.742 2.157-0.85 3.833-2.526 4.664-4.628l0.019-0.055c0.394-1.019 0.669-2.182 0.744-3.882 0.075-1.707 0.093-2.251 0.093-6.595s-0.006-4.888-0.080-6.595zM29.088 22.474c-0.070 1.563-0.333 2.406-0.55 2.97-0.552 1.399-1.64 2.486-3.004 3.024l-0.036 0.012c-0.56 0.219-1.411 0.482-2.968 0.55-1.688 0.075-2.194 0.094-6.464 0.094-4.269 0-4.782-0.019-6.464-0.094-1.563-0.069-2.406-0.331-2.97-0.55-0.721-0.269-1.334-0.676-1.836-1.192l-0.001-0.001c-0.517-0.503-0.924-1.117-1.184-1.803l-0.011-0.034c-0.218-0.563-0.48-1.413-0.549-2.97-0.075-1.688-0.094-2.195-0.094-6.464 0-4.27 0.019-4.784 0.094-6.464 0.069-1.563 0.331-2.406 0.549-2.97 0.269-0.722 0.678-1.337 1.198-1.837l0.002-0.002c0.504-0.517 1.119-0.923 1.806-1.182l0.034-0.011c0.56-0.219 1.411-0.48 2.968-0.55 1.688-0.074 2.195-0.093 6.464-0.093 4.275 0 4.782 0.019 6.464 0.093 1.563 0.069 2.406 0.331 2.97 0.55 0.693 0.256 1.325 0.662 1.837 1.194 0.531 0.52 0.938 1.144 1.195 1.84 0.218 0.56 0.48 1.411 0.549 2.968 0.075 1.688 0.094 2.194 0.094 6.464 0 4.269-0.019 4.768-0.094 6.458z">
      </path>
      <path
        d="M16.059 7.782c-4.539 0.002-8.218 3.682-8.219 8.221v0c0 0 0 0.001 0 0.002 0 4.541 3.681 8.222 8.222 8.222s8.222-3.681 8.222-8.222c0-4.541-3.681-8.222-8.222-8.222-0.001 0-0.001 0-0.002 0h0zM16.059 21.334c-2.945-0-5.332-2.388-5.332-5.333s2.388-5.333 5.333-5.333c0 0 0.001 0 0.001 0h-0c2.946 0 5.334 2.388 5.334 5.334s-2.388 5.334-5.334 5.334v0zM26.525 7.458c0 1.060-0.86 1.92-1.92 1.92s-1.92-0.86-1.92-1.92v0c0-1.060 0.86-1.92 1.92-1.92s1.92 0.86 1.92 1.92v0z">
      </path>
    </symbol>
    <symbol id="insta-colorized" viewBox="0 0 32 32">
      <path fill="#fff"
        d="M32 16v.021a15.9 15.9 0 0 1-4.686 11.293 15.902 15.902 0 0 1-11.293 4.687h-.022H16h-.02a15.9 15.9 0 0 1-11.293-4.686A15.902 15.902 0 0 1 0 16.022v-.021.001-.02A15.9 15.9 0 0 1 4.686 4.689 15.902 15.902 0 0 1 15.979.002H16h-.001.02a15.9 15.9 0 0 1 11.293 4.686 15.902 15.902 0 0 1 4.687 11.293v.021-.001z"
        opacity=".1" style="fill:var(--color4, #fff)" />
      <path fill="#fff"
        d="M23.258 13.004c-.033-.773-.159-1.304-.337-1.764a3.57 3.57 0 0 0-.841-1.29l-.001-.001a3.583 3.583 0 0 0-1.263-.83l-.024-.008c-.463-.179-.991-.304-1.764-.337-.778-.037-1.025-.046-3.001-.046s-2.222.009-2.998.043c-.773.033-1.304.159-1.764.338a3.58 3.58 0 0 0-1.29.84l-.001.001c-.36.354-.645.784-.83 1.263l-.008.024c-.18.463-.304.991-.338 1.764-.037.778-.046 1.025-.046 3.001s.009 2.222.043 2.998c.034.773.159 1.304.338 1.764.194.505.48.935.84 1.29h.001c.364.369.804.656 1.287.838.463.18.992.305 1.764.338.776.034 1.023.043 2.998.043s2.222-.009 2.998-.043c.773-.033 1.304-.159 1.764-.337a3.741 3.741 0 0 0 2.12-2.104l.009-.025c.179-.463.304-.992.338-1.764.034-.776.042-1.023.042-2.998s-.003-2.222-.036-2.998zm-1.309 5.939c-.032.711-.151 1.094-.25 1.349a2.428 2.428 0 0 1-1.365 1.376l-.016.006c-.255.099-.641.218-1.349.249-.767.034-.997.043-2.938.043s-2.174-.009-2.938-.043c-.711-.031-1.094-.151-1.35-.25a2.237 2.237 0 0 1-.834-.542l-.001-.001a2.268 2.268 0 0 1-.538-.819l-.005-.016c-.099-.256-.218-.642-.249-1.35-.034-.767-.043-.998-.043-2.938s.009-2.175.043-2.938c.031-.711.151-1.094.249-1.35.122-.328.308-.608.545-.835l.001-.001c.229-.235.509-.42.821-.537l.016-.005c.255-.099.641-.218 1.349-.25.767-.033.998-.042 2.938-.042 1.943 0 2.174.008 2.938.042.711.031 1.094.151 1.35.25.315.116.602.301.835.543.241.236.426.52.543.836.099.255.218.641.249 1.349.034.767.043.997.043 2.938s-.009 2.167-.043 2.935z"
        style="fill:var(--color4, #fff)" />
      <path fill="#fff"
        d="M16.027 12.265a3.737 3.737 0 0 0-3.737 3.737v.001a3.737 3.737 0 1 0 3.737-3.737h-.001zm0 6.16a2.424 2.424 0 1 1 0-4.848 2.424 2.424 0 1 1 0 4.848zm4.757-6.308a.873.873 0 0 1-1.746 0 .873.873 0 0 1 1.746 0z"
        style="fill:var(--color4, #fff)" />
    </symbol>
    <symbol id="mail" viewBox="0 0 43 32">
      <path
        d="M38.667 0H4C1.795 0 0 1.795 0 4v24c0 2.205 1.795 4 4 4h34.667c2.205 0 4-1.795 4-4V4c0-2.205-1.795-4-4-4zm0 2.667c.181 0 .355.037.512.104L21.334 18.238 3.489 2.771c.151-.065.327-.104.512-.104h34.667zm0 26.666H4A1.333 1.333 0 0 1 2.667 28V5.587l17.792 15.421c.233.203.539.327.875.327s.642-.124.876-.328l-.002.001L40 5.587V28c0 .736-.597 1.333-1.333 1.333z" />
    </symbol>
    <symbol id="smartphone" viewBox="0 0 20 32">
      <path d=" M17 0H3C1.346 0 0 1.346 0 3v26c0 1.654 1.346 3 3 3h14c1.654 0 3-1.346 3-3V3c0-1.654-1.346-3-3-3zM3 2h14a1 1
        0 0 1 1 1v21H2V3a1 1 0 0 1 1-1zm14 28H3a1 1 0 0 1-1-1v-3h16v3a1 1 0 0 1-1 1z" />
      <path
        d="M4.708 27.478a.889.889 0 0 1 .001 1.319l-.001.001a1.048 1.048 0 0 1-1.417 0l.001.001a.889.889 0 0 1-.001-1.319l.001-.001a1.048 1.048 0 0 1 1.417 0l-.001-.001z" />
    </symbol>
    <symbol id="twitter" viewBox="0 0 32 32">
      <path
        d="M32 6.078c-1.1 0.493-2.376 0.857-3.713 1.028l-0.068 0.007c1.36-0.817 2.382-2.078 2.873-3.579l0.013-0.046c-1.197 0.722-2.591 1.273-4.076 1.573l-0.084 0.014c-1.2-1.279-2.9-2.076-4.787-2.076-3.622 0-6.558 2.936-6.558 6.558 0 0.001 0 0.003 0 0.004v-0c0 0.52 0.043 1.021 0.152 1.496-5.454-0.266-10.28-2.88-13.522-6.861-0.564 0.949-0.899 2.092-0.902 3.313v0.001c0 2.272 1.171 4.286 2.914 5.451-1.091-0.030-2.107-0.325-2.994-0.823l0.033 0.017v0.072c0.003 3.165 2.236 5.807 5.213 6.44l0.043 0.008c-0.499 0.136-1.071 0.215-1.662 0.215-0.020 0-0.041-0-0.061-0l0.003 0c-0.419 0-0.843-0.024-1.242-0.112 0.85 2.598 3.261 4.509 6.13 4.57-2.215 1.746-5.045 2.8-8.122 2.8-0.004 0-0.008 0-0.013 0h0.001c-0.018 0-0.040 0-0.062 0-0.531 0-1.055-0.034-1.569-0.099l0.061 0.006c2.826 1.846 6.287 2.944 10.004 2.944 0.021 0 0.042-0 0.063-0h-0.003c12.072 0 18.672-10 18.672-18.669 0-0.288-0.010-0.57-0.024-0.848 1.299-0.936 2.39-2.064 3.258-3.355l0.030-0.047z">
      </path>
    </symbol>
    <symbol id="twitter-colorized" viewBox="0 0 32 32">
      <path fill="#43444d"
        d="M32 16v.021a15.9 15.9 0 0 1-4.686 11.293 15.902 15.902 0 0 1-11.293 4.687h-.022H16h-.02a15.9 15.9 0 0 1-11.293-4.686A15.902 15.902 0 0 1 0 16.022v-.021.001-.02A15.9 15.9 0 0 1 4.686 4.689 15.902 15.902 0 0 1 15.979.002H16h-.001.02a15.9 15.9 0 0 1 11.293 4.686 15.902 15.902 0 0 1 4.687 11.293v.021-.001z"
        style="fill:var(--color6, #43444d)" />
      <path fill="#fff"
        d="M23.273 11.49c-.5.224-1.08.39-1.688.467l-.031.003a2.98 2.98 0 0 0 1.306-1.627l.006-.021a5.851 5.851 0 0 1-1.853.715l-.038.006a2.981 2.981 0 0 0-5.158 2.036v.003c0 .236.02.464.07.68a8.443 8.443 0 0 1-6.147-3.119 2.984 2.984 0 0 0 .917 3.986 2.937 2.937 0 0 1-1.362-.375l.015.008v.033a2.995 2.995 0 0 0 2.37 2.927l.02.003a2.906 2.906 0 0 1-.756.098h-.028.001c-.191 0-.383-.011-.564-.051a3.012 3.012 0 0 0 2.786 2.078 5.95 5.95 0 0 1-3.69 1.271h-.046c-.238 0-.472-.015-.702-.044l.027.003a8.318 8.318 0 0 0 4.548 1.338h.029-.001c5.487 0 8.487-4.545 8.487-8.486 0-.131-.004-.259-.011-.385a5.994 5.994 0 0 0 1.481-1.526l.014-.021z"
        style="fill:var(--color4, #fff)" />
    </symbol>
    <symbol id="ya-co" viewBox="0 0 57 32">
      <path
        d="m20.267 3.733 3.738 3.538-6.938-.004v17.167H35.2V17.87l3.733 3.534V3.733H20.266zm14.769 13.722L24.439 7.423h10.597v10.032zm-3.29 4.468h-11.81V10.378h.835v10.763h10.975v.781zm-9.021 4.797-.436.899-.436-.899h-.366l.637 1.198v.698h.331v-.698l.635-1.198h-.364zm.549 1.896.154-.442h.734l.155.442h.344l-.717-1.896h-.296l-.716 1.896h.342zm.52-1.493.275.786h-.549l.275-.787zm1.737.74a.425.425 0 0 0-.071.238v.003c0 .16.056.29.168.389s.263.149.45.149a.784.784 0 0 0 .485-.153l.107.126h.367l-.278-.33a.95.95 0 0 0 .164-.574h-.275a.768.768 0 0 1-.079.348l-.366-.432.129-.094a.724.724 0 0 0 .195-.195l.002-.003a.41.41 0 0 0 .06-.216v-.01a.39.39 0 0 0-.132-.293.477.477 0 0 0-.32-.123h-.02.001c-.153 0-.274.044-.364.13s-.135.203-.135.352c0 .061.014.123.043.189.03.065.082.144.155.237a1.13 1.13 0 0 0-.282.261zm.856.42a.478.478 0 0 1-.299.107h-.015a.31.31 0 0 1-.212-.083.286.286 0 0 1-.085-.203v-.011.001c0-.101.052-.192.156-.271l.041-.029.414.489zm-.34-.84c-.09-.11-.134-.202-.134-.275 0-.063.019-.116.055-.157a.184.184 0 0 1 .139-.063h.015c.052 0 .1.02.135.054a.168.168 0 0 1 .056.126v.007a.234.234 0 0 1-.08.177l-.041.032-.145.099zm3.086 1.03a.689.689 0 0 0 .224-.474h-.328c-.018.135-.059.232-.124.29s-.163.087-.292.087c-.141 0-.249-.054-.323-.162s-.11-.264-.11-.469v-.167c.002-.203.041-.355.117-.46a.386.386 0 0 1 .331-.157c.123 0 .217.03.28.091s.104.158.12.294h.328c-.021-.207-.095-.368-.222-.482s-.296-.171-.506-.171a.717.717 0 0 0-.681.421l-.002.005c-.06.133-.096.288-.096.451v.023-.001.177c.003.174.035.327.098.46s.151.234.266.306a.75.75 0 0 0 .4.107c.216 0 .389-.056.519-.169zm1.936-.266c.064-.141.097-.304.097-.49v-.125c0-.169-.036-.329-.102-.473l.003.007a.728.728 0 0 0-.274-.318l-.003-.002c-.119-.075-.256-.112-.411-.112s-.291.037-.411.113a.738.738 0 0 0-.277.324 1.135 1.135 0 0 0-.098.466v.025-.001.107c.001.181.034.341.099.48a.752.752 0 0 0 .279.322.764.764 0 0 0 .411.112.755.755 0 0 0 .412-.112.737.737 0 0 0 .276-.323zm-.353-1.072c.08.112.119.274.119.484v.099c0 .213-.039.376-.118.487a.386.386 0 0 1-.336.167h-.014a.393.393 0 0 1-.324-.17l-.001-.001c-.081-.114-.121-.275-.121-.483v-.109c.002-.204.043-.362.122-.473a.39.39 0 0 1 .321-.168h.014-.001a.39.39 0 0 1 .338.168z" />
    </symbol>
    <symbol id="checkbox-form" viewBox="0 0 32 32">
      <path fill="#2196f3" style="fill: var(--color1, #2196f3)"
        d="M4 1h24c2.209 0 4 1.791 4 4v22c0 2.209-1.791 4-4 4h-24c-2.209 0-4-1.791-4-4v-22c0-2.209 1.791-4 4-4z"></path>
      <path fill="#fff" style="fill: var(--color2, #fff); stroke: var(--color2, #fff)" stroke="#fff"
        stroke-linejoin="miter" stroke-linecap="butt" stroke-miterlimit="4" stroke-width="0.4"
        d="M7.914 16.504l-0.138-0.132-0.138 0.13-1.928 1.828 0.152 0.146 7.13 6.8 0.138-0.132 15.16-14.462-0.152-0.144-1.902-1.814-0.138 0.132-13.106 12.492-5.078-4.844z">
      </path>
    </symbol>
    <symbol id="email-form" viewBox="0 0 32 32">
      <path
        d="M26.667 5.333h-21.333c-1.467 0-2.652 1.2-2.652 2.667l-0.014 16c0 1.467 1.2 2.667 2.667 2.667h21.333c1.467 0 2.667-1.2 2.667-2.667v-16c0-1.467-1.2-2.667-2.667-2.667zM26.133 11.001l-9.426 5.892c-0.201 0.126-0.446 0.2-0.708 0.2s-0.506-0.075-0.713-0.204l0.006 0.003-9.426-5.892c-0.336-0.201-0.557-0.562-0.557-0.975 0-0.625 0.507-1.132 1.132-1.132 0.233 0 0.449 0.070 0.629 0.19l-0.004-0.003 8.933 5.586 8.933-5.588c0.176-0.118 0.392-0.188 0.624-0.188 0.625 0 1.132 0.507 1.132 1.132 0 0.413-0.221 0.775-0.552 0.972l-0.005 0.003z">
      </path>
    </symbol>
    <symbol id="name-form" viewBox="0 0 32 32">
      <path
        d="M16 16c2.946 0 5.333-2.388 5.333-5.333s-2.388-5.333-5.333-5.333v0c-2.946 0-5.333 2.388-5.333 5.333s2.388 5.333 5.333 5.333v0zM16 18.667c-3.561 0-10.667 1.787-10.667 5.333v1.333c0 0.732 0.599 1.333 1.333 1.333h18.667c0.732 0 1.333-0.601 1.333-1.333v-1.333c0-3.547-7.108-5.333-10.667-5.333z">
      </path>
    </symbol>
    <symbol id="phone-form" viewBox="0 0 32 32">
      <path
        d="M24.882 19.774l-3.268-0.373c-0.090-0.011-0.194-0.018-0.3-0.018-0.707 0-1.347 0.287-1.81 0.75l-2.368 2.368c-3.669-1.894-6.585-4.81-8.427-8.372l-0.051-0.108 2.382-2.377c0.463-0.463 0.75-1.103 0.75-1.81 0-0.106-0.006-0.21-0.019-0.312l0.001 0.012-0.373-3.243c-0.155-1.287-1.24-2.276-2.557-2.276-0.001 0-0.002 0-0.003 0h-2.226c-1.454 0-2.663 1.209-2.574 2.661 0.683 10.987 9.47 19.762 20.444 20.444 1.452 0.089 2.663-1.12 2.663-2.574v-2.226c0-0.004 0-0.008 0-0.012 0-1.308-0.985-2.386-2.253-2.532l-0.012-0.001z">
      </path>
    </symbol>
    <symbol id="telegramm" viewBox="0 0 32 32">
      <path fill="#fff" style="fill: var(--color2, #fff)"
        d="M32 0l-32 18 10.227 3.787 15.773-14.787-11.997 16.187 0.009 0.003-0.012-0.003v8.813l5.735-6.691 7.267 2.691 4.999-28z">
      </path>
    </symbol>
    <symbol id="checkbox" viewBox="0 0 42 32">
      <path fill="#fff" style="fill: var(--color1, #fff); stroke: var(--color1, #fff)" stroke="#fff"
        stroke-linejoin="miter" stroke-linecap="butt" stroke-miterlimit="4" stroke-width="0.64"
        d="M6.262 15.206l-0.221-0.211-0.221 0.208-3.085 2.925 0.243 0.234 11.408 10.88 0.221-0.211 24.256-23.139-0.243-0.23-3.043-2.902-0.221 0.211-20.97 19.987-8.125-7.75z">
      </path>
    </symbol>
    <symbol id="cross" viewBox="0 0 32 32">
      <path
        d="M26.667 7.303l-1.97-1.97-7.808 7.808-7.808-7.808-1.97 1.97 7.808 7.808-7.808 7.808 1.97 1.97 7.808-7.808 7.808 7.808 1.97-1.97-7.808-7.808 7.808-7.808z">
      </path>
    </symbol>
  </defs>
</svg>